<svg xmlns="http://www.w3.org/2000/svg" version="1.1" xmlns:xlink="http://www.w3.org/1999/xlink" xmlns:svgjs="http://svgjs.dev/svgjs" viewBox="0 0 800 800" opacity="0.9"><defs><linearGradient x1="50%" y1="0%" x2="50%" y2="100%" id="uundulate-grad"><stop stop-color="rgba(92, 147, 177, 0.1)" stop-opacity="1" offset="45%"></stop><stop stop-color="rgba(92, 147, 177, 0.1)" stop-opacity="1" offset="100%"></stop></linearGradient></defs><g stroke-width="1" stroke="url(#uundulate-grad)" fill="none"><path d="M3479.158945319932 -195.20447201939214C3606.2529757818174 539.4555775538006 1790.689173954268 2063.6096241412542 911.34175968217 2791.558737044109C31.994345410072583 3519.507849946963 -90.36512755109106 3381.7970654688133 -741.7086431861462 3298.951269914305C-1393.0521588212016 3216.105474359795 -1846.7402009911434 2937.4222551351477 -2215.107115366094 2393.8989183824606C-2583.4740297410444 1850.3755816297735 -2476.4448628977125 1715.9591323209488 -2509.869832185901 690.0392535014157C-2543.2948014740896 -335.8806253181174 -2961.2053524600296 -2233.673009449497 -2375.5469679494013 -2530.5164999512963C-1789.888583438773 -2827.359990453096 -918.4399851326552 -1221.332840059701 301.2904134651226 -734.8095009072194C1521.0208120629004 -248.28616175473826 3352.064914858047 -929.8645215925853 3479.158945319932 -195.20447201939214C3606.2529757818174 539.4555775538006 1790.689173954268 2063.6096241412542 911.34175968217 2791.558737044109 "></path><path d="M3418.78320373067 -183.53365069015945C3543.385194379578 536.7212998717946 1763.4206827839407 2030.9899729967483 901.3153746740413 2744.6655738819C39.21006656414147 3458.3411747670507 -80.75020104484247 3323.330601749257 -719.3222751968578 3242.1092335585618C-1357.8943493488723 3160.8878653678676 -1802.6865475546979 2887.6690229907617 -2163.83058125563 2354.803006566559C-2524.9746149565617 1821.9369901423552 -2420.044059227805 1690.1561574866455 -2452.813636961323 684.3523547223972C-2485.583214694841 -321.45144804185065 -2895.299441151645 -2182.032216798105 -2321.1245543765194 -2473.05524670183C-1746.9496676013937 -2764.0782766055554 -892.5882967130428 -1189.5418546512467 303.22581955928854 -712.5581888154807C1499.03993583162 -235.57452297971486 3294.1812130817625 -903.7886012521133 3418.78320373067 -183.53365069015945C3543.385194379578 536.7212998717946 1763.4206827839407 2030.9899729967483 901.3153746740413 2744.6655738819 "></path><path d="M3358.407614729299 -171.86307350155175C3480.5175655652274 533.9867780491631 1736.152344201504 1998.3700777116183 891.2891422538023 2697.772166579067C46.42594030610098 3397.1742554465154 -71.1351219507037 3264.863893889077 -696.9357546196779 3185.266953062196C-1322.7363872886528 3105.670012235315 -1758.6327415303617 2837.915546705751 -2112.5538945572753 2315.7068506100322C-2466.4750475841884 1793.4981545143137 -2363.6431029700066 1664.3529385117172 -2395.7572891488544 678.6652118027541C-2427.871475327702 -307.0225149062089 -2829.39337725537 -2130.3916682873382 -2266.701988215747 -2415.594237592989C-1704.0105991761236 -2700.7968068986397 -866.7364557055398 -1157.751113383417 305.16137824134466 -690.3071208643664C1477.0592121882291 -222.86312834531554 3236.2976638933696 -877.7129250522664 3358.407614729299 -171.86307350155175C3480.5175655652274 533.9867780491631 1736.152344201504 1998.3700777116183 891.2891422538023 2697.772166579067 "></path><path d="M3298.0318731400366 -160.19252683052173C3417.649784162988 531.252225708954 1708.8838530311768 1965.75015190891 881.2627572456736 2650.8787287586556C53.641661460169416 3336.0073056084 -61.52019544445511 3206.3971555113194 -674.5493866303896 3128.4246420482514C-1287.5785778163238 3050.4521285851843 -1714.5790880939162 2788.1620399031626 -2061.277360446811 2276.6106641359274C-2407.9756327997056 1765.0592883686932 -2307.242299300099 1638.5496890192117 -2338.7010939242764 672.9780383655329C-2370.1598885484536 -292.5936122881453 -2763.4874659469856 -2078.7511502941497 -2212.2795746428646 -2358.1332590017255C-1661.0716833387442 -2637.515367709302 -840.8847672859276 -1125.9604026331654 307.0967843355106 -668.0560834308299C1455.0783359569486 -210.15176422849436 3178.413962117086 -851.6372793699975 3298.0318731400366 -160.19252683052173C3417.649784162988 531.252225708954 1708.8838530311768 1965.75015190891 881.2627572456736 2650.8787287586556 "></path><path d="M3237.656558796869 -148.52173601886716C3354.7824300068414 528.5179175093695 1681.6157891069433 1933.130470246826 871.2367994836377 2603.9855350788685C60.857809860332054 3274.840599910911 -51.90484169211277 3147.930661274185 -652.162591395007 3071.5825751749308C-1252.420341097901 2995.2344890756776 -1670.525007411377 2738.4087772411985 -2010.000399090253 2237.5147218024476C-2349.475790769129 1736.6206663636967 -2250.8410683840975 1612.7466836673302 -2281.6444714536046 667.2911090689363C-2312.4478745231113 -278.1644655294572 -2697.5811273925074 -2027.1103881603358 -2157.856733823889 -2300.6720362698375C-1618.132340255271 -2574.233684379339 -815.0326516202215 -1094.169447742289 309.0326176757703 -645.804801856669C1433.097886971762 -197.44015597104908 3120.5306875868964 -825.561389547104 3237.656558796869 -148.52173601886716C3354.7824300068414 528.5179175093695 1681.6157891069433 1933.130470246826 871.2367994836377 2603.9855350788685 "></path><path d="M3177.2805730669825 -136.85091468963446C3291.914404463977 525.7836398273635 1654.347053795991 1900.510819102321 861.210170334884 2557.0923719166603C68.07328687377594 3213.6739247309997 -42.29015932648963 3089.46419755463 -629.7764675463432 3014.74053881919C-1217.262775766197 2940.01688008375 -1626.4715981155564 2688.6555450968126 -1958.724109120414 2198.418809986546C-2290.9766201252714 1708.1820748762802 -2194.4405088548147 1586.943708833026 -2224.5885203696516 661.6042102899178C-2254.736531884488 -263.73528825319045 -2631.675460224748 -1975.4695955089442 -2103.434564391632 -2243.2107830203713C-1575.1936685585165 -2510.9519705317985 -789.1812073412339 -1062.3784623338342 310.9677796293113 -623.5534897649297C1411.1167665998555 -184.72851719602477 3062.646741669987 -799.4854692066317 3177.2805730669825 -136.85091468963446C3291.914404463977 525.7836398273635 1654.347053795991 1900.510819102321 861.210170334884 2557.0923719166603 "></path><path d="M3116.9049230304545 -125.18033750102632C3229.046714614471 523.0491180047325 1627.0786541783982 1867.890923817191 851.1838768794887 2510.1989646138272C75.28909958057875 3152.5070054104635 -32.67514126750666 3030.9974896944486 -607.3900080043204 2957.8982583228235C-1182.1048747411337 2884.7990269511974 -1582.4178531263765 2638.9020688118026 -1907.4474834572152 2159.32265403002C-2232.477113788054 1679.743239248237 -2138.039613632173 1561.1404898580986 -2167.5322335923393 655.9170673702752C-2197.024853552505 -249.30635511754826 -2565.769457363629 -1923.8290469981773 -2049.012059266016 -2185.74977391153C-1532.2546611684027 -2447.6705008248828 -763.3294273688873 -1030.5877210660046 312.90327727621116 -601.3024218138153C1389.1359819213094 -172.0171225616259 3004.763131446438 -773.4097930067849 3116.9049230304545 -125.18033750102632C3229.046714614471 523.0491180047325 1627.0786541783982 1867.890923817191 851.1838768794887 2510.1989646138272 "></path><path d="M3056.5292424763493 -113.50976031241862C3166.178994247388 520.3145961821015 1599.8102240432272 1835.2710285320609 841.1575529065153 2463.305557310994C82.50488176980389 3091.3400860899274 -23.06015372610227 2972.530781834269 -585.0035789798753 2901.055977826457C-1146.9470042336484 2829.5811738186458 -1538.3641386547747 2589.1485925267925 -1856.1708883115948 2120.2264980734935C-2173.977637968415 1651.3044036201954 -2081.638748927109 1535.3372708831707 -2110.475977332605 650.2299244506316C-2139.313205738101 -234.877421981907 -2499.8634850200883 -1872.1884984874105 -1994.5895846579776 -2128.2887648026885C-1489.315684295867 -2384.389031117967 -737.4776779141184 -998.796979798175 314.8387444055329 -579.0513538627008C1367.1551667251847 -159.3057279272266 2946.8794907053107 -747.3341168069378 3056.5292424763493 -113.50976031241862C3166.178994247388 520.3145961821015 1599.8102240432272 1835.2710285320609 841.1575529065153 2463.305557310994 "></path><path d="M2996.153561922243 -101.8389695007636C3103.311273880304 517.5802879825164 1572.5417939080562 1802.6513468699777 831.1312289335428 2416.412363631207C89.72066395902903 3030.173380392438 -13.445166184697428 2914.0642875971344 -562.6171499554302 2844.213910953137C-1111.789133726163 2774.363534309139 -1494.310424183173 2539.3953298648285 -1804.8942931659744 2081.1305557400137C-2115.478162148776 1622.865781615199 -2025.237884222045 1509.5342655312884 -2053.4197210728707 644.542995154035C-2081.601557923696 -220.44827522321793 -2433.9575126765476 -1820.547736353597 -1940.1671100499395 -2070.8275420708005C-1446.3767074233313 -2321.107347788004 -711.6259284593498 -967.0060249072985 316.77421153485557 -556.8000722885399C1345.1743515290605 -146.59411966978132 2888.9958499641825 -721.2582269840443 2996.153561922243 -101.8389695007636C3103.311273880304 517.5802879825164 1572.5417939080562 1802.6513468699777 831.1312289335428 2416.412363631207 "></path><path d="M2935.7782170614973 -90.1683923121559C3040.44388920658 514.8457661598854 1545.273699466245 1770.0314515848477 821.1052406539288 2369.518956328374C96.93678184161308 2969.006461071901 -3.8298429499332087 2855.5975797369547 -540.230385237626 2787.3716304567706C-1076.6309275253184 2719.1456811765865 -1450.2563740182118 2489.6418535798184 -1753.6173623269947 2042.034399783488C-2056.9783506357776 1594.426945987157 -1968.8366838236218 1483.7310465563605 -1996.3631291197769 638.8558522343919C-2023.889574415932 -206.01934208757666 -2368.0512046396475 -1768.9071878428301 -1885.7442997485418 -2013.3665329619594C-1403.4373948574362 -2257.8258780810884 -685.7738433112218 -935.2152836394689 318.7100143575367 -534.5490043374255C1323.1938720262951 -133.882725035382 2831.1125449164147 -695.1825507841972 2935.7782170614973 -90.1683923121559C3040.44388920658 514.8457661598854 1545.273699466245 1770.0314515848477 821.1052406539288 2369.518956328374 "></path><path d="M2875.402261849188 -78.49760150050133C2977.575894181293 512.1114579603013 1518.004994672871 1737.4117699227636 811.0786420227528 2322.6257626485885C104.1522893726351 2907.8397553744126 5.784869933268055 2797.131085499822 -517.8442308713841 2730.529563583452C-1041.4733316760364 2663.9280416670817 -1406.2029342048131 2439.8885909178543 -1702.3410418395774 2002.9384574500082C-1998.4791494743417 1565.9883239821615 -1912.436093776761 1457.9280412044795 -1939.3071475182458 633.1689229377957C-1966.1782012597305 -191.59019532888806 -2302.14550695431 -1717.2664257090164 -1831.3220997987069 -1955.905310230071C-1360.4986926431038 -2194.544194751126 -659.9223685146562 -903.4243287485924 320.6452068286558 -512.2977227632643C1301.2127821719673 -121.17111677793582 2773.2286295170843 -669.1066609613031 2875.402261849188 -78.49760150050133C2977.575894181293 512.1114579603013 1518.004994672871 1737.4117699227636 811.0786420227528 2322.6257626485885 "></path><path d="M2815.026611812661 -66.82702431189318C2914.708204331787 509.3769361376699 1490.736595055278 1704.791874637633 801.052348567358 2275.7323553457536C111.36810207943836 2846.6728360538755 15.399887992251024 2738.6643776396404 -495.4577713293611 2673.6872830870843C-1006.3154306509728 2608.7101885345282 -1362.1491892156332 2390.1351146328434 -1651.064416176379 1963.8423014934815C-1939.9796431371244 1537.5494883541191 -1856.035198554119 1432.1248222295503 -1882.2508607409334 627.4817800181522C-1908.4665229277477 -177.16126219324633 -2236.239504093191 -1665.6258771982498 -1776.8995946730906 -1898.4443011212297C-1317.55968525299 -2131.26272504421 -634.0705885423095 -871.633587480763 322.58070447555565 -490.0466548121501C1279.2319974934212 -108.45972214353742 2715.345019293535 -643.0309847614565 2815.026611812661 -66.82702431189318C2914.708204331787 509.3769361376699 1490.736595055278 1704.791874637633 801.052348567358 2275.7323553457536 "></path><path d="M2754.651205916758 -55.156202982660034C2851.840758622906 506.6426584556639 1463.4684395783102 1672.172223493128 791.0262992525882 2228.8391921835464C118.58415892686617 2785.5061608739643 25.015150191858993 2680.197913920085 -473.0710676467129 2616.8452467313427C-971.1572854852845 2553.4925795426007 -1318.0952000858283 2340.3818824884574 -1599.7875463725554 1924.7463896775798C-1881.4798926592823 1509.1108968667018 -1799.634059190852 1406.3218473952475 -1825.194329822996 621.7948812391342C-1850.75460045514 -162.7320849169796 -2170.333257091447 -1613.9850845468577 -1722.4768454068492 -1840.9830478717636C-1274.6204337222512 -2067.981011196669 -608.2185644293377 -839.8426020723084 324.516446263081 -467.7953427204109C1257.2514569554992 -95.74808336851311 2657.46165321061 -616.9550644209844 2754.651205916758 -55.156202982660034C2851.840758622906 506.6426584556639 1463.4684395783102 1672.172223493128 791.0262992525882 2228.8391921835464 "></path><path d="M2694.275098116559 -43.485656311630464C2788.972611009729 503.90810611545476 1436.1995821970454 1639.55229769042 780.9995480335215 2181.9457543631343C125.7995138699971 2724.33921103585 34.62971048716963 2621.731175542326 -450.6850658683618 2560.002935717399C-935.999842223893 2498.27469589247 -1274.0419128603203 2290.6283756858693 -1548.5113784730288 1885.650203203475C-1822.9808440857369 1480.6720307210808 -1743.2336217318816 1380.518597902741 -1768.1385008093555 616.1077078019125C-1793.0433798868291 -148.30318229891577 -2104.427711994 -1562.3445665536692 -1668.0547980449046 -1783.5220692805003C-1231.6818840958092 -2004.6995720073314 -582.3672422206628 -808.0518913220567 326.45148614630943 -445.54430528687453C1235.2702145132812 -83.03671925169238 2599.577585223389 -590.8794187387157 2694.275098116559 -43.485656311630464C2788.972611009729 503.90810611545476 1436.1995821970454 1639.55229769042 780.9995480335215 2181.9457543631343 "></path><path d="M2633.8996311855008 -31.814834982397315C2726.105104265692 501.1738284334483 1408.9313656849213 1606.9326465459144 770.9734376835954 2135.052591200927C133.0155096822691 2663.172535855939 44.24491165162135 2563.2647118227715 -428.29842322086984 2503.1608993616564C-900.841758093361 2443.0570869005423 -1229.9879847656719 2240.8751435414842 -1497.2345697043613 1846.5542913875743C-1764.481154643051 1452.2334392336638 -1686.832543403771 1354.7156230684382 -1711.0820309265744 610.4208090228949C-1735.3315184493777 -133.87400502264904 -2038.5215260274126 -1510.7037739022774 -1613.6321098138196 -1726.060816031034C-1188.7426936002266 -1941.4178581597907 -556.515279142847 -776.2609059136021 328.38716689867806 -423.29299319513507C1213.2896129402034 -70.32508047666806 2541.694158105309 -564.8034983982436 2633.8996311855008 -31.814834982397315C2726.105104265692 501.1738284334483 1408.9313656849213 1606.9326465459144 770.9734376835954 2135.052591200927 "></path><path d="M2573.524011666552 -20.144288311367973C2663.237444933764 498.43927609323873 1381.6629965849065 1574.3127207432058 760.9471747457787 2088.159153380515C140.2313529066505 2602.0055860178236 53.85996022818199 2504.797973445012 -405.91193316126873 2446.3185883477117C-865.6838265507195 2387.8392032504107 -1185.9342092589136 2191.121636738895 -1445.9579135235847 1807.4581049134686C-1705.9816177882558 1423.7945730880429 -1630.4316176635507 1328.9123735759317 -1654.0257136316839 604.7336355856728C-1677.6198095998168 -119.4451024045859 -1972.6154926487156 -1459.0632559090886 -1559.2095741706253 -1668.599837439771C-1145.8036556925347 -1878.136418970453 -530.6634686529221 -744.4701951633506 330.3226950631565 -401.0419557615992C1191.308858779235 -57.613716359847785 2483.810578399338 -538.7278527159749 2573.524011666552 -20.144288311367973C2663.237444933764 498.43927609323873 1381.6629965849065 1574.3127207432058 760.9471747457787 2088.159153380515 "></path><path d="M2513.1480869718207 -8.47346698213505C2600.369480426056 495.70499841123274 1354.3943223091105 1541.6930695987007 750.9206066321804 2041.2659902183063C147.44689095525064 2540.8389108379133 63.474703628961834 2446.331509725457 -383.52574827744866 2389.476551991971C-830.5262001838591 2332.621594258484 -1141.8807389279368 2141.36840459451 -1394.6815625185893 1768.3621930975678C-1647.4823861092418 1395.3559816006255 -1574.030997099112 1303.1093987416284 -1596.9697015125744 599.0467368066547C-1619.9084059260372 -105.01592512831894 -1906.7097644458 -1407.422463257697 -1504.7873437032122 -1611.1385841903045C-1102.864922960624 -1814.8547051229123 -504.8119633387787 -712.679209754896 332.25791805185327 -378.7906436698597C1169.3277994424857 -44.90207758482347 2425.9266935175856 -512.6519323755028 2513.1480869718207 -8.47346698213505C2600.369480426056 495.70499841123274 1354.3943223091105 1541.6930695987007 750.9206066321804 2041.2659902183063 "></path><path d="M2452.7726810759186 3.1972322767851438C2537.502034717175 492.9705986589138 1327.1261668321422 1509.0732963838827 740.8945573174105 1994.3727049857853C154.6629478026789 2479.6721135876887 73.0899658285698 2387.864923935589 -361.1390445948007 2332.634393565916C-795.3680550181707 2277.403863196243 -1097.8267497981321 2091.6150503798117 -1343.4046927147658 1729.2661592113536C-1588.9826356313995 1366.9172680428956 -1517.6298577358448 1277.3063018370126 -1539.913170594637 593.3597159573237C-1562.1964834534292 -90.58686992236494 -1840.8035174440563 -1355.7817926766177 -1450.3645944369707 -1553.6774530111506C-1059.9256714298851 -1751.5731133456839 -478.9599392258067 -680.8883464167538 334.1936598393786 -356.539453648433C1147.3472589045641 -32.190560880112116 2368.0433274346615 -486.5761341053435 2452.7726810759186 3.1972322767851438C2537.502034717175 492.9705986589138 1327.1261668321422 1509.0732963838827 740.8945573174105 1994.3727049857853 "></path><path d="M2392.396847933922 14.867778947815168C2474.6341617622 490.23604631870467 1299.8575841090806 1476.4533705811746 730.868080756547 1947.4792671653745C161.87857740401296 2418.5051637495744 82.70480078208357 2329.3981855578313 -338.7527681582462 2275.7920825519723C-760.210337098576 2222.1859795461132 -1053.7731879144208 2041.861543577223 -1292.128250157036 1690.1699727372488C-1530.4833123996511 1338.478401897275 -1461.2291456186717 1251.5030523445062 -1482.8570669227934 587.6725425201025C-1504.4849882269154 -76.15796730430111 -1774.8976976884062 -1304.141274683429 -1395.942272416823 -1496.2164744198876C-1016.9868471452402 -1688.2916741563463 -453.10834235892867 -649.0976356665024 336.1289743808102 -334.28841621489664C1125.3662911205488 -19.479196763291156 2310.1595341056427 -460.50048842307456 2392.396847933922 14.867778947815168C2474.6341617622 490.23604631870467 1299.8575841090806 1476.4533705811746 730.868080756547 1947.4792671653745 "></path><path d="M2332.0213504852854 26.538600277047863C2411.7666245005857 487.5017686366982 1272.5893370793783 1443.833719436669 720.8419398890428 1900.586104003166C169.0945426987064 2357.3384885696632 92.31997142895716 2270.931721838275 -316.3661560283326 2218.9500461962302C-725.0522834856222 2166.968370554185 -1009.7192903373505 1992.1083114328376 -1240.8514719059467 1651.0740609213472C-1471.9836534745432 1310.0398104098576 -1404.8280978081389 1225.7000775102033 -1425.8006275575904 581.9856437410845C-1446.7731573070419 -61.72879002803461 -1708.9915422393967 -1252.5004820320373 -1341.5196147033162 -1438.7552211704212C-974.0476871672357 -1625.0099603088054 -427.25640979869127 -617.3066502580477 338.06462461560113 -312.03710412315763C1103.3856590298928 -6.767557988267299 2252.276076469984 -434.4245680826025 2332.0213504852854 26.538600277047863C2411.7666245005857 487.5017686366982 1272.5893370793783 1443.833719436669 720.8419398890428 1900.586104003166 "></path><path d="M2271.6457614839137 38.20917746565601C2348.898995686237 484.7672468140672 1245.3209984969417 1411.213824151539 710.8157074688038 1853.6926967003333C176.31041644066613 2296.1715692491266 101.93505052309615 2212.4650139780942 -293.9796354511532 2162.107765699863C-689.8943214254025 2111.7505174216326 -965.6654843130143 1942.3548351478266 -1189.574785207592 1611.9779049648214C-1413.4840861021698 1281.6009747818152 -1348.4271415503406 1199.896858535275 -1368.7442797451217 576.2985008214409C-1389.061417939903 -47.299856892392654 -1643.0854783431216 -1200.8599335212702 -1287.0970485425437 -1381.29421206158C-931.1086187419656 -1561.7284906018897 -401.40456879118824 -585.5159089902181 340.0001832976568 -289.78603617204317C1081.404935386503 5.9438366461317855 2194.392527281591 -408.34889188275565 2271.6457614839137 38.20917746565601C2348.898995686237 484.7672468140672 1245.3209984969417 1411.213824151539 710.8157074688038 1853.6926967003333 "></path><path d="M2211.270019894652 49.87972413668558C2286.031214283996 482.0326944738581 1218.0525073266144 1378.5938983488304 700.7893224606746 1806.7992588799216C183.52613759473456 2235.004619411012 111.54997702934452 2153.9982756003355 -271.59326746186434 2105.265454685919C-654.7365119530737 2056.532633771502 -921.6118308765688 1892.601328345238 -1138.2982510971278 1572.8817184907166C-1354.9846713176871 1253.1621086361947 -1292.026337880433 1174.0936090427685 -1311.6880845205437 570.6113273842193C-1331.3498311606545 -32.87095427432928 -1577.1795670347371 -1149.2194155280818 -1232.6746349696616 -1323.8332334703168C-888.1697029045862 -1498.447051412552 -375.55288037157584 -553.7251982399666 341.9355893918232 -267.53499873850706C1059.424059155222 18.655200762952518 2136.5088255053074 -382.27324620048694 2211.270019894652 49.87972413668558C2286.031214283996 482.0326944738581 1218.0525073266144 1378.5938983488304 700.7893224606746 1806.7992588799216 "></path><path d="M2150.8944003757024 61.550423395606C2223.163554952069 479.2982947215396 1190.7841382265997 1345.9741251340129 690.7630595228575 1759.905973647401C190.74198081911595 2173.8378221607886 121.16502560590538 2095.531689810468 -249.20677740226324 2048.423296259865C-619.5785804104321 2001.3149027092618 -877.5580553698107 1842.8479741305405 -1087.0215949163512 1533.7856846045029C-1296.485134462892 1224.7233950784653 -1235.6254121402128 1148.2905121381532 -1254.6317672256532 564.9243065348892C-1273.6381223110936 -18.44189906837505 -1511.2735336560402 -1097.5787449470024 -1178.2520993264673 -1266.3721022911632C-845.2306649968942 -1435.1654596353237 -349.7010698816507 -521.9343349018245 343.8711175563012 -245.2838087170801C1037.4433049942536 31.366717467664103 2078.6252457993364 -356.19744793032714 2150.8944003757024 61.550423395606C2223.163554952069 479.2982947215396 1190.7841382265997 1345.9741251340129 690.7630595228575 1759.905973647401 "></path><path d="M2090.518567233706 73.22112265452643C2160.295681997095 476.56389496922066 1163.515555503538 1313.3543519191949 680.7365829619939 1713.01268841488C197.95761042045046 2112.6710249105645 130.77986055941938 2037.0651040205998 -226.8205009657088 1991.5811378338103C-584.4208624908374 1946.0971716470212 -833.5044934860996 1793.094619915842 -1035.7451523586215 1494.6896507182887C-1237.9858112311433 1196.284681520735 -1179.2247000230395 1122.4874152335374 -1197.5756635538096 559.2372856855582C-1215.9266270845796 -4.012843862420823 -1445.36771390039 -1045.938074365923 -1123.8297773063196 -1208.9109711120093C-802.2918407122493 -1371.8838678580953 -323.8494730147727 -490.1434715636824 345.8064320977328 -223.03261869565358C1015.4623372102383 44.07823417237546 2020.7414524703186 -330.1216496601678 2090.518567233706 73.22112265452643C2160.295681997095 476.56389496922066 1163.515555503538 1313.3543519191949 680.7365829619939 1713.01268841488 "></path><path d="M2030.142917197179 84.8917913958685C2097.427992147589 473.8294646993236 1136.2471558859452 1280.7345481867987 670.7102895065991 1666.1193726647807C205.1734231272535 2051.5041971427627 140.39487861840212 1978.5984877131536 -204.4340414236858 1934.7389488901786C-549.262961465774 1890.879410067203 -789.4507484969197 1743.3412351835655 -984.468526695423 1455.5935863144964C-1179.4863048939262 1167.8459374454264 -1122.8238048003975 1096.684287811343 -1140.5193767764972 553.550234318649C-1158.214948752597 10.41618082595528 -1379.4617110392712 -994.2974343024221 -1069.4072721807033 -1151.4498704504335C-759.3528333221354 -1308.6023065984452 -297.99769304242614 -458.3526387431184 347.7419297446329 -200.78145919180497C993.4815525316917 56.78972035950869 1962.8578422467685 -304.0458819075866 2030.142917197179 84.8917913958685C2097.427992147589 473.8294646993236 1136.2471558859452 1280.7345481867987 670.7102895065991 1666.1193726647807 "></path><path d="M1969.767389230964 96.56249065478892C2034.5604243683956 471.0950649470051 1108.9788783386648 1248.1147749719812 660.6841181215168 1619.22608743226C212.38935790436904 1990.3373998925385 150.0100187476976 1920.131901923286 -182.0474598113501 1877.8967904641245C-514.104938370398 1835.661679004963 -745.3968814374273 1693.587880968868 -933.191778961912 1416.4975524282827C-1120.9866764863964 1139.407223887697 -1066.422787507443 1070.8811909067276 -1083.4629679288723 547.8632134693185C-1100.5031483503017 24.845236031909508 -1313.5555861078399 -942.6567637213427 -1014.9846449847745 -1093.9887392712799C-716.4137038617091 -1245.3207148212168 -272.14579099976663 -426.5617754049763 349.67754946184573 -178.53026917037778C971.5008899234581 69.5012370642205 1904.974354093532 -277.970083637427 1969.767389230964 96.56249065478892C2034.5604243683956 471.0950649470051 1108.9788783386648 1248.1147749719812 660.6841181215168 1619.22608743226 "></path><path d="M1909.3917391944365 108.23318991370934C1971.6927345188906 468.36066519468636 1081.710478721072 1215.4950017571632 650.657824666122 1572.332802199739C219.6051706111723 1929.1706026423144 159.62503680668033 1861.6653161334175 -159.66100026932736 1821.05463203807C-478.9470373453346 1780.4439479427228 -701.3431364482474 1643.83452675417 -881.9151532987133 1377.4015185420685C-1062.4871701491793 1110.9685103299666 -1010.021892284801 1045.0780940021118 -1026.40668115156 542.1761926199877C-1042.791470018319 39.274291237863736 -1247.649583246721 -891.0160931402635 -960.5621398591582 -1036.527608092126C-673.4746964715953 -1182.0391230439886 -246.29401102741986 -394.7709120668343 351.61304710874583 -156.27907914895127C949.5201052449115 82.21275376893163 1847.0907438699828 -251.89428536726746 1909.3917391944365 108.23318991370934C1971.6927345188906 468.36066519468636 1081.710478721072 1215.4950017571632 650.657824666122 1572.332802199739 "></path><path d="M1849.0159670875964 119.90385865505164C1908.8249225990721 465.6262349247895 1054.4419570331665 1182.8751980247675 640.6314091404147 1525.4394864496403C226.82086124766283 1868.0037748745126 169.23993279535057 1803.1986998259722 -137.27466279761666 1764.2124430944382C-443.78925839058377 1725.2261863629046 -657.28951352938 1594.0811420218938 -830.6386497058273 1338.3054541382762C-1003.9877858822747 1082.529766254659 -953.6211191324713 1019.2749665799183 -969.3505164445601 536.489141253079C-985.0799137566487 53.70331592623984 -1181.7437024559147 -839.3754530767623 -906.1397568038543 -979.0665074305504C-630.535811151794 -1118.7575617843386 -220.44235312538558 -362.9800792462702 353.54842268533343 -134.02791964510243C927.5391984960524 94.92423995606532 1789.2070115761212 -225.81851761468624 1849.0159670875964 119.90385865505164C1908.8249225990721 465.6262349247895 1054.4419570331665 1182.8751980247675 640.6314091404147 1525.4394864496403 "></path><path d="M1788.6402865334912 131.57455791397183C1845.9572022319885 462.8918351724708 1027.1735268979955 1150.2554248099495 630.605085167442 1478.5462012171192C234.03664343688797 1806.836977624289 178.85492033675519 1744.7321140361041 -114.88823377317158 1707.370284668384C-408.63138788309845 1670.008455300664 -613.2357990577782 1544.3277878071954 -779.362054560207 1299.209420252062C-945.4883100626356 1054.0910526969292 -897.2202544274074 993.4718696753021 -912.2942601848258 530.802120403748C-927.3682659422441 68.13237113219384 -1115.837730112374 -787.734782495683 -851.7172821958161 -921.6053762513966C-587.5968342792582 -1055.4759700071102 -194.59060367061693 -331.18921590812806 355.48388981465564 -111.77672962367569C905.5583832999278 107.63575666077668 1731.3233708349935 -199.7427193445269 1788.6402865334912 131.57455791397183C1845.9572022319885 462.8918351724708 1027.1735268979955 1150.2554248099495 630.605085167442 1478.5462012171192 "></path><path d="M1728.2646059793856 143.24513510257975C1783.0894818649049 460.1573133498398 999.9050967628245 1117.6355295248195 620.5787611944686 1431.6527939142861C241.25242562611288 1745.6700583037527 188.4699078781598 1686.2654061759235 -92.50180474872673 1650.5280041720175C-373.47351737561326 1614.790602168112 -569.1820845861764 1494.5743115221853 -728.0854594145865 1260.1132642955358C-886.9888342429965 1025.6522170688868 -840.8193897223435 967.6686507003742 -855.2380039250914 525.1149774841049C-869.6566181278395 82.56130426783557 -1049.9317577688332 -736.0942339849162 -797.2948075877779 -864.1443671425552C-544.6578574067225 -992.1945003001944 -168.73885421584828 -299.39847464029845 357.4193569439774 -89.52566167256145C883.5775681038031 120.34715129517576 1673.4397300938663 -173.66704314467984 1728.2646059793856 143.24513510257975C1783.0894818649049 460.1573133498398 999.9050967628245 1117.6355295248195 620.5787611944686 1431.6527939142861 "></path><path d="M1667.8890780131705 154.91580384392205C1720.221914085712 457.4228830799427 972.6368192155442 1085.0157257924238 610.5525898093863 1384.759478164187C248.46836040322842 1684.5032305359505 198.08504800745527 1627.7987898684773 -70.11522313639125 1593.6858152283853C-338.3154942802373 1559.5728405882933 -525.128217526684 1444.8209267899092 -676.8087116810755 1221.017199891744C-828.4892058354669 997.2134729935788 -784.418372429389 941.8655232781803 -798.1815950774666 519.427926117196C-811.9448177255441 96.99032895621167 -984.0256328374019 -684.4535939214151 -742.872180391849 -806.6832664809797C-501.7187279462962 -928.9129390405442 -142.886952173189 -267.60764181973445 359.3549766611902 -67.27450216871284C861.5969054955694 133.058637482309 1615.5562419406292 -147.59127539209862 1667.8890780131705 154.91580384392205C1720.221914085712 457.4228830799427 972.6368192155442 1085.0157257924238 610.5525898093863 1384.759478164187 "></path><path d="M1607.5133364239086 166.58650310284247C1657.3541326834716 454.688483327624 945.3683280452169 1052.3959525776054 600.5262048012571 1337.8661929316659C255.6840815572973 1623.3364332857268 207.69997451370364 1569.3322040786093 -47.72885514710242 1536.8436568023312C-303.15768480790825 1504.3551095260532 -481.0745640902385 1395.0675725752108 -625.5321775706113 1181.9211660055298C-769.9897910509841 968.7747594358489 -728.0175687594814 916.0624263735642 -741.1253998528886 513.7409052678652C-754.2332309462957 111.4193841621659 -918.1197215290174 -632.8129233403358 -688.4497668189672 -749.2221353018258C-458.7798121089169 -865.6313472633159 -117.0352637535766 -235.81677848159245 361.29038275535595 -45.023312147286106C839.6160292642887 145.77015418702035 1557.6725401643457 -121.51547712193917 1607.5133364239086 166.58650310284247C1657.3541326834716 454.688483327624 945.3683280452169 1052.3959525776054 600.5262048012571 1337.8661929316659 "></path><path d="M1547.1375337994905 178.2572023617629C1594.4862902460754 451.9540835753055 918.0997758397336 1019.7761793627878 590.4997587579717 1290.9729076991453C262.8997416762095 1562.1696360355031 217.31483998479575 1510.8656182887412 -25.342548192969844 1480.0014983762776C-267.99993637073555 1449.137378463813 -437.0209716889492 1345.3142183605128 -574.2557044953035 1142.8251321193156C-711.4904373016575 940.3360458781185 -671.6168261247299 890.2593294689486 -684.0692656634668 508.0538844185344C-696.5217052022036 125.84843936812013 -852.2138712557892 -581.1722527592565 -634.0274142812414 -691.761004122672C-415.84095730669367 -802.3497554860876 -91.18363636912045 -204.02591514345022 363.22572781436565 -22.77212212585914C817.6350919978515 158.48167089173194 1499.7887773529055 -95.43967885177972 1547.1375337994905 178.2572023617629C1594.4862902460754 451.9540835753055 918.0997758397336 1019.7761793627878 590.4997587579717 1290.9729076991453 "></path><path d="M1486.762036350854 189.9278711031052C1531.6187529844601 449.21965330540843 890.8315288100314 987.156375630392 580.4736178904675 1244.0795919490465C270.1157069709034 1501.0028082677009 226.93001063166912 1452.399001981295 -2.9559360630562423 1423.159309432645C-232.8418827577816 1393.9196168839944 -392.9670741118787 1295.5608336282367 -522.9789262442142 1103.7290677155233C-652.9907783765498 911.8973018028105 -615.2157783141972 864.4562020467549 -627.0128262982637 502.36683305162546C-638.8098742823303 140.27746405649623 -786.3077158067797 -529.5316126957553 -579.6047565677345 -634.2999034610964C-372.9017973286892 -739.0681942264374 -65.33170380888293 -172.23508232288623 365.1613780491564 -0.5209626220105292C795.6544599071956 171.19315707886517 1441.905319717247 -69.36391109919839 1486.762036350854 189.9278711031052C1531.6187529844601 449.21965330540843 890.8315288100314 987.156375630392 580.4736178904675 1244.0795919490465 "></path><path d="M1426.3863252791703 201.59857036202538C1468.7510020997984 446.4852535530897 863.563068157282 954.5366024155742 570.4472633999162 1197.1863067165255C277.3314586425504 1439.8360110174772 236.54496765549584 1393.9324161914274 19.430462443810598 1366.3171510065908C-197.68404276787442 1338.7018858217543 -348.91339015785513 1245.8074794135387 -471.70236161617197 1064.6330338293096C-594.4913330744888 883.4585882450806 -558.8149441267115 838.6531051421391 -569.9566005561076 496.67981220229467C-581.0982569855037 154.70651926245046 -720.4017739808171 -477.890942114676 -525.1823124772744 -576.8387722819425C-329.96285097373163 -675.7866024492091 -39.47998487169241 -140.4442189847441 367.09681466090024 21.73022739941632C773.673614193493 183.90467378357675 1384.0216484585417 -43.28811282903894 1426.3863252791703 201.59857036202538C1468.7510020997984 446.4852535530897 863.563068157282 954.5366024155742 570.4472633999162 1197.1863067165255 "></path><path d="M1366.0107057602208 213.26923910336768C1405.883342767871 443.75082328319286 836.2946990572673 921.9167986831783 560.4210004620995 1150.2929909664267C284.5473018669313 1378.6691832496754 246.1600162320567 1335.4657998839812 41.81695250341181 1309.474962062959C-162.52611122523297 1283.4841242419361 -304.8596146510971 1196.0540946812625 -420.42570543539523 1025.5369694255173C-535.9917962196935 855.0198441697726 -502.4140183864913 812.8499777199454 -512.900283261217 490.992760835386C-523.3865481359428 169.13554395082656 -654.4957406021202 -426.25030205117486 -470.75977683407996 -519.377671620367C-287.0238130660398 -612.505041189559 -13.628174381767508 -108.65338616418012 369.0323428253787 43.981386903264934C751.6928600325245 196.6161599707102 1326.1380687525702 -17.212345076457495 1366.0107057602208 213.26923910336768C1405.883342767871 443.75082328319286 836.2946990572673 921.9167986831783 560.4210004620995 1150.2929909664267 "></path><path d="M1305.6350557236929 224.9399383622881C1343.015652918365 441.01642353087436 809.0262994396744 889.2970254683605 550.3947070067045 1103.399705733906C291.7631145737346 1317.5023859994512 255.77503429103945 1276.999214094113 64.20341204543502 1252.632803636905C-127.36821020016964 1228.2663931796963 -260.8058696619172 1146.3007404665643 -369.1490797721967 986.4409355393036C-477.49228988247637 826.5811306120427 -446.0131231638493 787.0468808153296 -455.8439964839047 485.30573998605496C-465.6748698039601 183.56459915678067 -588.5897377410014 -374.60963147009556 -416.3372717084636 -461.9165404412131C-244.08480567592596 -549.2234494123306 12.223605590579268 -76.862522826038 370.9678404722788 66.23257692469178C729.7120753539782 209.32767667542157 1268.2544585290207 8.863453193701844 1305.6350557236929 224.9399383622881C1343.015652918365 441.01642353087436 809.0262994396744 889.2970254683605 550.3947070067045 1103.399705733906 "></path><path d="M1245.2593446520095 236.61066813878665C1280.1479020337038 438.28205429613377 781.7578387869253 856.6772827711209 540.3683525161532 1056.5064510189634C298.9788662453816 1256.3356192668057 265.38999131486594 1218.5326588218234 86.58981055230186 1195.7906757284286C-92.21037021026245 1173.048692635034 -216.75218570789355 1096.5474167694445 -317.8725151441545 947.3449321706678C-418.9928445804154 798.1424475718909 -389.6122889763635 761.2438144282921 -398.78777074174855 479.6187496543025C-407.9632525071336 197.99368488031303 -522.6837959150388 -322.96893037143815 -361.9148276180035 -404.4553787444812C-201.14585932096838 -485.94182711752427 38.07532452776991 -45.07162897031776 372.90327708402265 88.48379746369665C707.7312296402754 222.03922389771117 1210.3707872703155 34.939281981439535 1245.2593446520095 236.61066813878665C1280.1479020337038 438.28205429613377 781.7578387869253 856.6772827711209 540.3683525161532 1056.5064510189634 "></path><path d="M1184.883694615482 248.2813063625507C1217.2802121841978 435.5475935086588 754.4894391693324 824.0574485211469 530.3420590607584 1009.6131047512863C306.1946789521844 1195.1687609814255 275.0050093738487 1160.0660119967993 108.97627009432495 1138.9484562672185C-57.052469185199016 1117.8309005376377 -172.69844071871364 1046.7940015195902 -266.595889480956 908.2488372492976C-360.49333824319825 769.7036729790048 -333.2113937537215 735.4406564885201 -341.73148396443617 473.9316677698155C-350.25157417515084 212.422679051111 -456.77779305391994 -271.3283208255151 -307.49232249238725 -346.99430860048363C-158.20685193085455 -422.6602963754522 63.927104500116684 -13.280826667331894 374.838774730923 110.73492644996736C685.750444961729 234.7506795672665 1152.487177046766 61.01501921644274 1184.883694615482 248.2813063625507C1217.2802121841978 435.5475935086588 754.4894391693324 824.0574485211469 530.3420590607584 1009.6131047512863 "></path><path d="M1124.5079835437982 259.9518530335805C1154.412461299536 432.81304116844944 727.2209785165833 791.4375227184385 520.3157045702073 962.7196669308748C313.4104306238314 1134.001811143311 284.6199663976753 1101.5992736190408 131.36266860119167 1082.1061452532738C-21.894629195291827 1062.613016887507 -128.64475676469 997.0404947170016 -215.31932485291367 869.1526507751928C-301.99389294113735 741.2648068333842 -276.81055956623567 709.6374069960139 -284.67525822228004 468.24449433259406C-292.53995687832435 226.8515816691746 -390.87185122795734 -219.68780283232644 -253.06987840192716 -289.5333300092205C-115.26790557589698 -359.37885718611454 89.77882343730721 18.509884082919598 376.7742113426666 132.98596388350347C663.7695992480262 247.46204368408735 1094.6035057880606 87.09066489871157 1124.5079835437982 259.9518530335805C1154.412461299536 432.81304116844944 727.2209785165833 791.4375227184385 520.3157045702073 962.7196669308748 "></path><path d="M1064.132333507271 271.6225522925008C1091.5447714500306 430.07864141613084 699.9525788989904 758.8177495036207 510.28941111481254 915.826381698354C320.62624333063457 1072.8350138930873 294.234984456658 1043.1326878291727 153.74912814321476 1025.2639868272197C13.263271829771497 1007.3952858252669 -84.59101177551008 947.2871405023036 -164.0426991897151 830.0566168889789C-243.49438660392013 712.8260932756543 -220.40966434359365 683.834310091398 -227.6189714449676 462.5574734832635C-234.82827854634155 241.28063687512872 -324.9658483668385 -168.04713225124715 -198.64737327631082 -232.07219883006672C-72.32889818578315 -296.09726540888624 115.63060340965399 50.300747421061715 378.7097089895668 155.2371539049302C641.7888145694797 260.1735603887988 1036.7198955645113 113.16646316887102 1064.132333507271 271.6225522925008C1091.5447714500306 430.07864141613084 699.9525788989904 758.8177495036207 510.28941111481254 915.826381698354 "></path><path d="M1003.7566529531653 283.2932210338431C1028.6770510829467 427.3442111462339 672.6841487638194 726.1979457712246 500.2630871418396 868.9330659482548C327.8420255198596 1011.6681861252853 303.84997199806276 984.6660715217265 176.13555716765973 968.4217978835875C48.42114233725681 952.1775242454485 -40.5372973039083 897.5337557700273 -112.76610404409473 790.9605524851868C-184.9949107842811 684.3873492003463 -164.00879963852975 658.0311826692041 -170.56271518523334 456.87042211635446C-177.11663073193694 255.70966156350482 -259.05987602329776 -116.40649218774604 -144.22489866827266 -174.61109816849103C-29.38992131324744 -232.81570414923607 141.48235286442264 82.0915802416257 380.6451761188889 177.48831340877882C619.8079993733554 272.88504657593205 978.8362548233838 139.24223092145235 1003.7566529531653 283.2932210338431C1028.6770510829467 427.3442111462339 672.6841487638194 726.1979457712246 500.2630871418396 868.9330659482548 "></path><path d="M943.3809723990598 294.96392029276353C965.8093307158629 424.60981139391515 645.4157186286484 693.578172556407 490.23676316886656 822.0397807157342C335.0578077090845 950.5013888750614 313.4649595394674 926.1994857318584 198.5219861921047 911.5796394575334C83.57901284474201 896.9597931832081 3.5164171676934757 847.7804015553293 -61.4895088984743 751.8645185989726C-126.49543496464207 655.9486356426162 -107.6079349334658 632.2280857645883 -113.50645892549909 451.18340126702367C-119.40498291753232 270.13871676945905 -193.15390367975704 -64.76582160666669 -89.80242406023444 -117.14996698933726C13.549055559288263 -169.53411237200777 167.3341023191913 113.88244357976782 382.580643248211 199.73950343020567C597.8271841772307 285.5965632806435 920.9526140822563 165.31802919161169 943.3809723990598 294.96392029276353C965.8093307158629 424.60981139391515 645.4157186286484 693.578172556407 490.23676316886656 822.0397807157342 "></path><path d="M883.0053223625323 306.63461955168384C902.9416408663574 421.87541164159643 618.1473190110555 660.958399341589 480.21046971347164 775.1464954832134C342.27362041588754 889.3345916248377 323.0799775984502 867.7328999419906 220.90844573412778 854.7374810314795C118.73691386980545 841.7420621209681 47.57016215687332 798.0270473406313 -10.21288323527574 712.7684847127587C-67.99592862742486 627.5099220848863 -51.20703971082378 606.4249888599727 -56.45017214818665 445.496380417693C-61.69330458554953 284.5677719754133 -127.24790081863824 -13.1251510255874 -35.379918934618104 -59.688835810183434C56.48806294940198 -106.25252059477947 193.18588229153806 145.67330691790994 384.5161408951112 221.99069345163252C575.8463994986841 298.3080799853551 863.069003858707 191.39382746177125 883.0053223625323 306.63461955168384C902.9416408663574 421.87541164159643 618.1473190110555 660.958399341589 480.21046971347164 775.1464954832134 "></path><path d="M822.6296418084266 318.30528829302614C840.0739204992738 419.1409813716997 590.8788888758845 628.3385956091932 470.1841457404985 728.2531797331144C349.4894026051127 828.1677638570357 332.69496513985484 809.2662836345444 243.29487475857286 797.8952920878471C153.89478437729065 786.5243005411498 91.6238766284751 748.2736626083552 41.06371191034464 673.6724203089666C-9.496452807785829 599.0711780095783 5.193824994240117 580.6218614377789 0.6060841115476023 439.8093290507841C-3.9816567711449125 298.9967966637894 -61.34192847509752 38.51548903791377 19.04255567342011 -2.227735148607792C99.42703982193768 -42.970959335129294 219.03763174630683 177.46413973847393 386.4516080244332 244.24185295548114C553.8655843025596 311.01956617248834 805.1853631175795 217.46959521435258 822.6296418084266 318.30528829302614C840.0739204992738 419.1409813716997 590.8788888758845 628.3385956091932 470.1841457404985 728.2531797331144 "></path><path d="M762.253961254321 329.9759570343683C777.2062001321899 416.40655110180285 563.6104587407135 595.7187918767974 460.15782176752555 681.3598639830155C356.7051847943376 767.0009360892336 342.3099526812596 750.7996673270986 265.6813037830177 741.0531031442151C189.05265488477596 731.3065389613316 135.67759110007688 698.5202778760789 92.34030705596501 634.5763559051745C49.0030230118532 570.6324339342702 61.59468969930401 554.818734015585 57.66234037128186 434.12227768387515C53.7299910432597 313.4258213521655 4.564043868443207 90.15612910141488 73.46503028145833 55.23336551296791C142.3660166944734 20.310601924520824 244.88938120107548 209.25497255903792 388.3870751537552 266.49301245932986C531.884769106435 323.7310523596218 747.3017223764523 243.5453629669339 762.253961254321 329.9759570343683C777.2062001321899 416.40655110180285 563.6104587407135 595.7187918767974 460.15782176752555 681.3598639830155 "></path><path d="M701.8783417353717 341.6466257757106C714.3385408002624 413.672120831906 536.3420896406988 563.0989881444013 450.13155882970887 634.4665482329165C363.92102801871886 705.8341083214317 351.92500125782044 692.3330510196523 288.0677938426189 684.2109142005828C224.21058642741747 676.0887773815133 179.7313666068349 648.7668931438027 143.6169632367417 595.4802915013825C107.50255986664848 542.1936898589622 117.99561543952422 529.0156065933911 114.71865766617236 428.43522631696624C111.44169989282057 327.8548460405415 70.47007724714018 141.79676916491604 127.88756592465273 112.69446617454355C185.30505460216534 83.592163184171 270.7411916910004 241.04580537960192 390.3226033182335 288.7441719631785C509.90401494546677 336.44253854675503 689.418142670481 269.62113071951524 701.8783417353717 341.6466257757106C714.3385408002624 413.672120831906 536.3420896406988 563.0989881444013 450.13155882970887 634.4665482329165 "></path><path d="M641.5026611812661 353.317309775842C651.4708204331787 410.9377058207982 509.07365950552776 530.4791996707945 440.1052348567358 587.5732477416067C371.13681020794377 644.6672958124188 361.53998879922506 633.8664499709953 310.4542228670639 627.3687405157398C259.3684569349027 620.871031060484 223.78508107843663 599.0135236703156 194.89355838236213 556.3842423563793C166.00203568628757 513.7549610424431 174.3964801445881 503.21249442998635 171.77491392590667 422.7481902088465C169.15334770722524 342.28388598770664 136.3760495906809 193.43742448720627 182.31004053269095 170.15558209490825C228.244031474701 146.87373970261024 296.59294114576903 272.83665345895497 392.2580704475556 310.99534672581626C487.9231997493421 349.15403999267755 631.5345019293535 295.6969137308856 641.5026611812661 353.317309775842C651.4708204331787 410.9377058207982 509.07365950552776 530.4791996707945 440.1052348567358 587.5732477416067 "></path><path d="M581.1269958859496 364.9879937759732C588.603115324884 408.20329080969054 481.8052446291458 497.8594111971877 430.07892614255184 540.6799472502969C378.35260765595785 583.5004833034059 371.15499159941885 575.3998489223384 332.8406671502979 570.5265668308966C294.52634270117704 565.6532847394549 267.8388108088275 549.2601541968286 246.17016878677157 517.2881932113763C224.50152676471566 485.3162322259242 230.79736010844107 477.4093822665816 228.83118544443 417.06115410072664C226.8650107804189 356.7129259348718 202.28203719301064 245.0780798094965 236.73253039951823 227.61669801527302C271.18302360602576 210.15531622104947 322.4447058593268 304.627501538308 394.19355283566665 333.246521488454C465.94239981200656 361.86554143859996 573.6508764470152 321.772696742256 581.1269958859496 364.9879937759732C588.603115324884 408.20329080969054 481.8052446291458 497.8594111971877 430.07892614255184 540.6799472502969 "></path><path d="M520.7513305906331 376.65864725852646C525.7354102165893 405.4688452810046 454.5368297527639 465.2395922060027 420.0526174283679 493.78661624140886C385.5684051039719 522.3336402768149 380.76999439961253 516.9332173561031 355.22711143353195 513.6843626284754C329.68422846745136 510.4355079008475 311.8925405392183 499.5067542057633 297.44677919118107 478.1921135487951C283.00101784314376 456.877472891827 287.198240072294 451.6062395855986 285.8874569629533 411.3740874750287C284.5766738536126 371.1419353644588 268.1880247953404 296.7187046142086 291.15502026634545 285.0777834180596C314.1220157373505 273.4368622219106 348.2964705728845 336.41831910008295 396.1290352237778 355.4976657335136C443.96159987467104 374.57701236694425 515.7672509646768 347.8484492360483 520.7513305906331 376.65864725852646C525.7354102165893 405.4688452810046 454.5368297527639 465.2395922060027 420.0526174283679 493.78661624140886 "></path><path d="M460.37566529531654 388.3293159998687C462.8677051082947 402.7344150111078 427.26841487638194 432.61978847360683 410.026308714184 446.8933004913099C392.78420255198597 461.1668125090129 390.38499719980626 458.466601048657 377.613555716766 456.84217368484315C364.8421142337257 455.2177463210292 355.94627026960916 449.7533694734871 348.7233895955905 439.096049145003C341.5005089215719 428.43872881651896 343.59912003614704 425.80311216340476 342.9437284814767 405.6870361081198C342.2883369268063 385.57096005283483 334.0940123976702 348.35934467770977 345.5775101331727 342.5388840796353C357.06100786867523 336.71842348156076 374.1482352864423 368.20915192064695 398.0645176118889 377.74882523736227C421.9807999373355 387.2884985540776 457.8836254823384 373.9242169886296 460.37566529531654 388.3293159998687C462.8677051082947 402.7344150111078 427.26841487638194 432.61978847360683 410.026308714184 446.8933004913099 "></path></g></svg>